<?xml version="1.0" encoding="UTF-8" standalone="no"?>
<svg
   xmlns:dc="http://purl.org/dc/elements/1.1/"
   xmlns:cc="http://creativecommons.org/ns#"
   xmlns:rdf="http://www.w3.org/1999/02/22-rdf-syntax-ns#"
   xmlns:svg="http://www.w3.org/2000/svg"
   xmlns="http://www.w3.org/2000/svg"
   xmlns:sodipodi="http://sodipodi.sourceforge.net/DTD/sodipodi-0.dtd"
   xmlns:inkscape="http://www.inkscape.org/namespaces/inkscape"
   id="svg8"
   version="1.1"
   viewBox="0 0 91.798073 84.896156"
   height="84.896156mm"
   width="91.798073mm"
   sodipodi:docname="logo.svg"
   inkscape:version="0.92.0 r15299">
  <sodipodi:namedview
     pagecolor="#ffffff"
     bordercolor="#666666"
     borderopacity="1"
     objecttolerance="10"
     gridtolerance="10"
     guidetolerance="10"
     inkscape:pageopacity="0"
     inkscape:pageshadow="2"
     inkscape:window-width="1360"
     inkscape:window-height="715"
     id="namedview4490"
     showgrid="false"
     inkscape:zoom="1.5645094"
     inkscape:cx="173.47667"
     inkscape:cy="160.43368"
     inkscape:window-x="-8"
     inkscape:window-y="-8"
     inkscape:window-maximized="1"
     inkscape:current-layer="layer1" />
  <defs
     id="defs2" />
  <metadata
     id="metadata5">
    <rdf:RDF>
      <cc:Work
         rdf:about="">
        <dc:format>image/svg+xml</dc:format>
        <dc:type
           rdf:resource="http://purl.org/dc/dcmitype/StillImage" />
        <dc:title />
      </cc:Work>
    </rdf:RDF>
  </metadata>
  <g
     transform="translate(-58.945125,-103.2046)"
     id="layer1">
    <path
       id="path4242"
       d="m 76.713494,175.06012 c -12.74894,-8.25222 -19.009018,-22.10379 -16.653732,-36.84961 2.22213,-13.91223 15.476843,-26.61698 28.761588,-27.56822 8.448411,-0.60497 15.22463,2.13995 26.88704,10.89142 l 1.22671,0.92089 -0.60508,-2.5231 c -1.4127,-5.89087 -0.93932,-10.12635 1.33494,-11.94394 1.19137,-0.95209 5.09701,-1.28793 8.01698,-0.68933 1.9846,0.4065 2.00587,0.44558 1.01538,1.85611 -2.74862,3.91398 -6.43944,10.54261 -6.68001,11.99717 -0.48597,2.93829 0.80807,3.77379 7.11511,4.59403 3.11291,0.40483 6.7497,0.92721 8.08175,1.16087 2.85617,0.50118 8.80745,3.66243 12.18849,6.47424 l 2.39702,1.99366 -3.04521,-1.24509 c -1.6737,-0.6876 -3.58965,-1.26576 -4.25474,-1.2915 -0.98759,-0.0385 -0.82457,0.33735 0.89022,2.04748 2.78422,2.77702 5.21892,8.36754 5.6226,12.91049 0.29959,3.37194 0.11728,4.19053 -2.18947,9.82932 l -2.51624,6.15115 1.28194,-4.37399 c 1.60266,-5.46806 1.44015,-10.27845 -0.49856,-14.75487 -1.33228,-3.07626 -5.83043,-9.06397 -6.58422,-8.76451 -0.16335,0.0649 -0.21436,1.93054 -0.11476,4.14583 0.12107,2.68479 -0.23919,5.27364 -1.08018,7.76272 l -1.26174,3.73457 0.0931,-3.2619 c 0.0509,-1.7942 -0.25628,-4.50482 -0.68323,-6.02398 -1.35517,-4.82189 -6.51628,-9.83199 -10.30971,-10.00803 -0.89828,-0.0417 -0.97779,0.23897 -0.67604,2.38778 l 0.3418,2.43506 -1.61551,-2.08278 c -0.88858,-1.14547 -2.35738,-2.41153 -3.26407,-2.8134 -4.8937,-2.16916 -17.9693,1.19875 -23.794329,6.12812 -1.710072,1.44716 -3.313485,3.10517 -3.563185,3.68458 -0.851726,1.97639 -1.208002,-0.0418 -0.486477,-2.75709 1.3956,-5.25245 6.478705,-11.7641 11.207851,-14.35773 2.67533,-1.46722 2.40504,-1.87869 -2.30058,-3.50201 -6.188951,-2.13523 -11.127919,-1.88355 -18.201838,0.9267 -6.031202,2.39605 -6.125251,2.04598 -0.722232,-2.68904 1.680901,-1.47305 4.855383,-3.40976 7.054369,-4.30373 2.198988,-0.89397 3.798976,-1.71088 3.555578,-1.81546 -1.299522,-0.56067 -7.897524,0.8041 -11.150994,2.30323 -6.263081,2.88583 -10.988348,8.97901 -13.921619,17.95179 -3.731466,11.41445 0.630222,23.70934 12.141304,34.22431 2.624704,2.39761 4.458938,3.51597 9.283121,5.66011 5.379174,2.39084 6.407349,2.66125 9.764916,2.57236 4.480505,-0.11915 9.855085,-2.12403 13.339875,-4.97627 3.33991,-2.73367 2.95121,-1.81763 -0.53722,1.26605 -1.50424,1.32972 -4.62773,3.19628 -6.94106,4.14792 -4.65979,1.91683 -4.59178,2.05474 1.658,3.36175 5.9666,1.24785 12.49123,0.5264 19.67232,-2.17517 3.40914,-1.28248 6.12118,-2.15273 6.0268,-1.93373 -0.37195,0.86307 -7.95361,4.87358 -11.90698,6.29843 -10.7605,3.87826 -31.728133,0.44162 -43.399777,-7.11327 z"
       style="fill:#ffffff;fill-opacity:1;stroke-width:0.60100096"
       inkscape:connector-curvature="0" />
  </g>
</svg>
